<svg id="ewtw9zfxo87e1" xmlns="http://www.w3.org/2000/svg" xmlns:xlink="http://www.w3.org/1999/xlink" viewBox="0 0 793 429" shape-rendering="geometricPrecision" text-rendering="geometricPrecision"><style><![CDATA[#ewtw9zfxo87e2_ts {animation: ewtw9zfxo87e2_ts__ts 3000ms linear infinite alternate-reverse forwards}@keyframes ewtw9zfxo87e2_ts__ts { 0% {transform: translate(325.739105px,440.911652px) scale(1,1)} 50% {transform: translate(325.739105px,440.911652px) scale(0.980000,0.980000)} 100% {transform: translate(325.739105px,440.911652px) scale(1,1)} }]]></style><defs><linearGradient id="ewtw9zfxo87e2-fill" x1="608.912000" y1="625.993000" x2="157.523000" y2="190.008000" spreadMethod="pad" gradientUnits="userSpaceOnUse"><stop id="ewtw9zfxo87e2-fill-0" offset="0%" stop-color="rgb(237,248,136)"/><stop id="ewtw9zfxo87e2-fill-1" offset="100%" stop-color="rgb(242,226,194)"/></linearGradient></defs><g id="ewtw9zfxo87e2_ts" transform="translate(325.739105,440.911652) scale(1,1)"><path id="ewtw9zfxo87e2" d="M561.343000,638.110000C533.724000,698.494000,496.261000,773.951000,424.392000,771.097000C351.177000,768.189000,294.658000,684.302000,239.887000,625.344000C202.593000,585.199000,194.777000,531.901000,161.820000,488.454000C120.751000,434.312000,23.227500,403.347000,25.321900,342.481000C27.407400,281.877000,130.332000,299.846000,169.688000,259.821000C208.519000,220.328000,194.462000,135.481000,248.147000,115.866000C302.618000,95.962600,370.297000,137.529000,430.919000,164.371000C498.813000,194.432000,589.495000,212.455000,619.054000,280.093000C649.325000,349.361000,574.162000,400.109000,563.324000,467.343000C554.280000,523.449000,584.121000,588.309000,561.343000,638.110000Z" transform="translate(-325.739105,-440.911652)" clip-rule="evenodd" fill="url(#ewtw9zfxo87e2-fill)" fill-opacity="0.6" fill-rule="evenodd" stroke="none" stroke-width="1"/></g></svg>
