<svg id="e8e70yy0phxu1" xmlns="http://www.w3.org/2000/svg" xmlns:xlink="http://www.w3.org/1999/xlink" viewBox="0 0 664 512" shape-rendering="geometricPrecision" text-rendering="geometricPrecision"><style><![CDATA[#e8e70yy0phxu2_ts {animation: e8e70yy0phxu2_ts__ts 3000ms linear infinite alternate-reverse forwards}@keyframes e8e70yy0phxu2_ts__ts { 0% {transform: translate(343.520839px,97.556575px) scale(1,1);animation-timing-function: cubic-bezier(0.455000,0.030000,0.515000,0.955000)} 51% {transform: translate(343.520839px,97.556575px) scale(0.980000,0.980000);animation-timing-function: cubic-bezier(0.455000,0.030000,0.515000,0.955000)} 100% {transform: translate(343.520839px,97.556575px) scale(1,1)} }]]></style><defs><linearGradient id="e8e70yy0phxu2-fill" x1="103.066000" y1="-200.061000" x2="832.957000" y2="401.468000" spreadMethod="pad" gradientUnits="userSpaceOnUse"><stop id="e8e70yy0phxu2-fill-0" offset="0%" stop-color="rgb(255,185,164)"/><stop id="e8e70yy0phxu2-fill-1" offset="100%" stop-color="rgb(230,238,156)"/></linearGradient></defs><g id="e8e70yy0phxu2_ts" transform="translate(343.520839,97.556575) scale(1,1)"><path id="e8e70yy0phxu2" d="M278.780000,-268.788000C343.403000,-292.253000,412.317000,-266.547000,477.038000,-246.636000C537.801000,-227.943000,593.464000,-200.870000,638.978000,-157.976000C689.483000,-110.379000,737.826000,-57.172200,750.142000,10.743600C763.413000,83.915000,744.362000,159.463000,708.697000,226.461000C670.084000,298.998000,619.352000,372.052000,541.569000,402.562000C463.765000,433.081000,371.052000,425.963000,299.199000,387.087000C234.114000,351.872000,221.726000,269.771000,182.479000,208.275000C149.775000,157.030000,96.589100,117.475000,88.639500,57.160900C80.350900,-5.725540,106.068000,-67.831600,138.712000,-123.791000C173.136000,-182.803000,213.585000,-245.116000,278.780000,-268.788000Z" transform="translate(-420.723602,-71.696320)" clip-rule="evenodd" fill="url(#e8e70yy0phxu2-fill)" fill-opacity="0.6" fill-rule="evenodd" stroke="none" stroke-width="1"/></g></svg>
