<?xml version="1.0" standalone="no"?><!DOCTYPE svg PUBLIC "-//W3C//DTD SVG 1.1//EN" "http://www.w3.org/Graphics/SVG/1.1/DTD/svg11.dtd"><svg t="1635386687593" class="icon" viewBox="0 0 1024 1024" version="1.1" xmlns="http://www.w3.org/2000/svg" p-id="2661" width="72" height="72" xmlns:xlink="http://www.w3.org/1999/xlink"><defs><style type="text/css"></style></defs><path d="M1024 512c0 282.752-229.248 512-512 512S0 794.752 0 512 229.248 0 512 0s512 229.248 512 512zM318.08 755.797333h390.058667a24.362667 24.362667 0 0 0 24.405333-24.362666V292.565333a24.405333 24.405333 0 0 0-24.405333-24.362666H318.08a24.362667 24.362667 0 0 0-24.405333 24.362666v438.869334a24.362667 24.362667 0 0 0 24.405333 24.362666z m97.493333-316.928V390.101333h195.072v48.768H415.573333z m0 97.493334V487.68h195.072v48.725333H415.573333z m0 97.536v-48.768h121.898667v48.768H415.573333z" fill="#70CDA1" p-id="2662"></path></svg>