<svg t="1634819211145" class="icon" viewBox="0 0 1024 1024" version="1.1" xmlns="http://www.w3.org/2000/svg" p-id="9134" width="48" height="48"><path d="M787.2 0H236.8C105.813333 0 0 105.813333 0 236.8v550.4C0 918.186667 105.813333 1024 236.8 1024h550.4c130.986667 0 236.8-105.813333 236.8-236.8V236.8C1024 105.813333 918.186667 0 787.2 0z m-276.906667 236.8l73.386667 57.6-70.826667 55.893333-72.96-57.6 70.4-55.893333zM343.04 369.92l169.813333 134.4 168.106667-133.12 42.666667 33.706667-211.2 166.826666-212.053334-168.106666 42.666667-33.706667z m168.96 422.4l-351.146667-277.76 42.24-33.706667L512 725.333333l308.48-244.053333 42.666667 33.28L512 792.32z" fill="#1296db" p-id="9135"></path></svg>