<?xml version="1.0" standalone="no"?><!DOCTYPE svg PUBLIC "-//W3C//DTD SVG 1.1//EN" "http://www.w3.org/Graphics/SVG/1.1/DTD/svg11.dtd"><svg t="1635386569281" class="icon" viewBox="0 0 1024 1024" version="1.1" xmlns="http://www.w3.org/2000/svg" p-id="5107" width="72" height="72" xmlns:xlink="http://www.w3.org/1999/xlink"><defs><style type="text/css"></style></defs><path d="M512 512m-512 0a512 512 0 1 0 1024 0 512 512 0 1 0-1024 0Z" fill="#3964F9" opacity=".1" p-id="5108"></path><path d="M491.52 550.17472c19.33312 0 37.51936-4.54656 53.59616-12.45184 37.53984-18.51392 63.22176-55.76704 63.22176-98.79552 0-43.008-25.7024-80.2816-63.22176-98.77504A120.91392 120.91392 0 0 0 491.52 327.68c-64.512 0-116.81792 49.80736-116.81792 111.24736 0 61.44 52.30592 111.24736 116.81792 111.24736z m223.90784 140.98432c-29.7984-54.31296-93.0816-95.4368-170.31168-108.62592-3.13344-0.53248-6.28736-0.98304-9.46176-1.41312-14.31552-2.00704-29.04064-3.13344-44.1344-3.13344-100.92544 0-187.43296 46.73536-223.90784 113.17248a10.8544 10.8544 0 0 0 2.9696 13.9264C331.30496 750.8992 408.064 778.24 491.52 778.24c14.5408 0 28.7744-1.08544 42.84416-2.72384 3.56352-0.4096 7.20896-0.65536 10.752-1.16736a363.76576 363.76576 0 0 0 167.34208-69.24288 10.83392 10.83392 0 0 0 2.9696-13.94688z" fill="#3964F9" p-id="5109"></path><path d="M618.41408 437.80096a127.7952 127.7952 0 0 1-36.2496 89.04704 116.0192 116.0192 0 0 0 49.664-12.16512c36.47488-18.28864 61.46048-55.0912 61.46048-97.5872 0-42.496-24.9856-79.29856-61.46048-97.5872a116.26496 116.26496 0 0 0-98.22208-2.78528c3.97312 1.57696 7.92576 3.1744 11.79648 5.12 45.056 22.56896 73.0112 66.99008 73.0112 115.95776z m178.9952 228.43392c-28.99968-53.6576-90.50112-94.24896-165.5808-107.29472a279.1424 279.1424 0 0 0-9.19552-1.39264c-13.9264-1.98656-28.24192-3.072-42.9056-3.072-16.19968 0-31.9488 1.35168-47.24736 3.76832 2.29376 0.32768 4.58752 0.63488 6.8608 1.024 80.81408 14.04928 148.3776 58.20416 180.736 118.08768a31.08864 31.08864 0 0 1-8.58112 39.60832c-9.5232 7.31136-19.51744 13.98784-29.73696 20.31616a349.184 349.184 0 0 0 112.7424-57.2416 10.83392 10.83392 0 0 0 2.88768-13.80352z" fill="#55BCFC" p-id="5110"></path></svg>